#Comment line ignore any data following # character 
#Hierarchical Translation and Rotation (.htr) file 
[Header]	
#Header keywords are followed by a single value 
FileType HTR		#Single word string
DataType HTRS		#Translation followed by rotation and scale data
FileVersion 1		#integer
NumSegments 64		#integer
NumFrames 3		#integer
DataFrameRate 30		#integer, data frame rate in this file
EulerRotationOrder ZYX
CalibrationUnits mm
RotationUnits Degrees
GlobalAxisofGravity Y
BoneLengthAxis Y
ScaleFactor 1.00
[SegmentNames&Hierarchy]
#CHILD	PARENT
Pinger_Root GLOBAL
Pelvis Pinger_Root
L_Hip Pelvis
R_Hip Pelvis
Rear_Leg01 Pelvis
Spine1 Pelvis
L_Leg01 L_Hip
L_Leg02 L_Leg01
L_Leg03 L_Leg02
L_Foot L_Leg03
L_Toe1_01 L_Foot
L_Toe2_01 L_Foot
L_Toe3_01 L_Foot
planeAlignerLeft L_Foot
L_Toe1_02 L_Toe1_01
L_Toe1_03 L_Toe1_02
L_Toe2_02 L_Toe2_01
L_Toe2_03 L_Toe2_02
L_Toe3_02 L_Toe3_01
L_Toe3_03 L_Toe3_02
planeLockWeightLeft planeAlignerLeft
R_Leg01 R_Hip
R_Leg02 R_Leg01
R_Leg03 R_Leg02
R_Foot R_Leg03
planeAlignerRight R_Foot
R_Toe1_01 R_Foot
R_Toe2_01 R_Foot
R_Toe3_01 R_Foot
planeLockWeightRight planeAlignerRight
R_Toe1_02 R_Toe1_01
R_Toe1_03 R_Toe1_02
R_Toe2_02 R_Toe2_01
R_Toe2_03 R_Toe2_02
R_Toe3_02 R_Toe3_01
R_Toe3_03 R_Toe3_02
Rear_Leg02 Rear_Leg01
Rear_Leg03 Rear_Leg02
Rear_Leg04 Rear_Leg03
Rear_Foot Rear_Leg04
planeAlignerCenter Rear_Foot
Rear_Toe1_01 Rear_Foot
Rear_Toe2_01 Rear_Foot
Rear_Toe3_01 Rear_Foot
planeLockWeightCenter planeAlignerCenter
Rear_Toe1_02 Rear_Toe1_01
Rear_Toe1_03 Rear_Toe1_02
Rear_Toe2_02 Rear_Toe2_01
Rear_Toe2_03 Rear_Toe2_02
Rear_Toe3_02 Rear_Toe3_01
Rear_Toe3_03 Rear_Toe3_02
Back_Bone Spine1
Head Spine1
Motor_Bone Back_Bone
Ping_Mechanism Back_Bone
BN_LookIK Head
bottomMouth Head
L_Mouth01 Head
L_mouthFront Head
mouthGun Head
R_Mouth01 Head
R_mouthFront Head
TopMouth Head
weapon_bone Head
[BasePosition]
#SegmentName Tx, Ty, Tz, Rx, Ry, Rz, BoneLength
Pinger_Root 0.000000 0.000000 0.000000 -90.000000 0.000000 0.000000 10.000000 
Pelvis 0.000000 0.000000 0.000000 0.000000 0.000000 0.000000 10.000000 
L_Hip 0.000000 0.000000 0.000000 0.000000 0.000000 0.000000 10.000000 
R_Hip 0.000000 0.000000 0.000000 0.000000 0.000000 0.000000 10.000000 
Rear_Leg01 0.000000 0.000000 0.000000 0.000000 0.000000 0.000000 10.000000 
Spine1 0.000000 0.000000 0.000000 0.000000 0.000000 0.000000 10.000000 
L_Leg01 0.000000 0.000000 0.000000 0.000000 0.000000 0.000000 10.000000 
L_Leg02 0.000000 0.000000 0.000000 0.000000 0.000000 0.000000 10.000000 
L_Leg03 0.000000 0.000000 0.000000 0.000000 0.000000 0.000000 10.000000 
L_Foot 0.000000 0.000000 0.000000 0.000000 0.000000 0.000000 10.000000 
L_Toe1_01 0.000000 0.000000 0.000000 0.000000 0.000000 0.000000 10.000000 
L_Toe2_01 0.000000 0.000000 0.000000 0.000000 0.000000 0.000000 10.000000 
L_Toe3_01 0.000000 0.000000 0.000000 0.000000 0.000000 0.000000 10.000000 
planeAlignerLeft 0.000000 0.000000 0.000000 0.000000 0.000000 0.000000 10.000000 
L_Toe1_02 0.000000 0.000000 0.000000 0.000000 0.000000 0.000000 10.000000 
L_Toe1_03 0.000000 0.000000 0.000000 0.000000 0.000000 0.000000 10.000000 
L_Toe2_02 0.000000 0.000000 0.000000 0.000000 0.000000 0.000000 10.000000 
L_Toe2_03 0.000000 0.000000 0.000000 0.000000 0.000000 0.000000 10.000000 
L_Toe3_02 0.000000 0.000000 0.000000 0.000000 0.000000 0.000000 10.000000 
L_Toe3_03 0.000000 0.000000 0.000000 0.000000 0.000000 0.000000 10.000000 
planeLockWeightLeft 0.000000 0.000000 0.000000 0.000000 0.000000 0.000000 10.000000 
R_Leg01 0.000000 0.000000 0.000000 0.000000 0.000000 0.000000 10.000000 
R_Leg02 0.000000 0.000000 0.000000 0.000000 0.000000 0.000000 10.000000 
R_Leg03 0.000000 0.000000 0.000000 0.000000 0.000000 0.000000 10.000000 
R_Foot 0.000000 0.000000 0.000000 0.000000 0.000000 0.000000 10.000000 
planeAlignerRight 0.000000 0.000000 0.000000 0.000000 0.000000 0.000000 10.000000 
R_Toe1_01 0.000000 0.000000 0.000000 0.000000 0.000000 0.000000 10.000000 
R_Toe2_01 0.000000 0.000000 0.000000 0.000000 0.000000 0.000000 10.000000 
R_Toe3_01 0.000000 0.000000 0.000000 0.000000 0.000000 0.000000 10.000000 
planeLockWeightRight 0.000000 0.000000 0.000000 0.000000 0.000000 0.000000 10.000000 
R_Toe1_02 0.000000 0.000000 0.000000 0.000000 0.000000 0.000000 10.000000 
R_Toe1_03 0.000000 0.000000 0.000000 0.000000 0.000000 0.000000 10.000000 
R_Toe2_02 0.000000 0.000000 0.000000 0.000000 0.000000 0.000000 10.000000 
R_Toe2_03 0.000000 0.000000 0.000000 0.000000 0.000000 0.000000 10.000000 
R_Toe3_02 0.000000 0.000000 0.000000 0.000000 0.000000 0.000000 10.000000 
R_Toe3_03 0.000000 0.000000 0.000000 0.000000 0.000000 0.000000 10.000000 
Rear_Leg02 0.000000 0.000000 0.000000 0.000000 0.000000 0.000000 10.000000 
Rear_Leg03 0.000000 0.000000 0.000000 0.000000 0.000000 0.000000 10.000000 
Rear_Leg04 0.000000 0.000000 0.000000 0.000000 0.000000 0.000000 10.000000 
Rear_Foot 0.000000 0.000000 0.000000 0.000000 0.000000 0.000000 10.000000 
planeAlignerCenter 0.000000 0.000000 0.000000 0.000000 0.000000 0.000000 10.000000 
Rear_Toe1_01 0.000000 0.000000 0.000000 0.000000 0.000000 0.000000 10.000000 
Rear_Toe2_01 0.000000 0.000000 0.000000 0.000000 0.000000 0.000000 10.000000 
Rear_Toe3_01 0.000000 0.000000 0.000000 0.000000 0.000000 0.000000 10.000000 
planeLockWeightCenter 0.000000 0.000000 0.000000 0.000000 0.000000 0.000000 10.000000 
Rear_Toe1_02 0.000000 0.000000 0.000000 0.000000 0.000000 0.000000 10.000000 
Rear_Toe1_03 0.000000 0.000000 0.000000 0.000000 0.000000 0.000000 10.000000 
Rear_Toe2_02 0.000000 0.000000 0.000000 0.000000 0.000000 0.000000 10.000000 
Rear_Toe2_03 0.000000 0.000000 0.000000 0.000000 0.000000 0.000000 10.000000 
Rear_Toe3_02 0.000000 0.000000 0.000000 0.000000 0.000000 0.000000 10.000000 
Rear_Toe3_03 0.000000 0.000000 0.000000 0.000000 0.000000 0.000000 10.000000 
Back_Bone 0.000000 0.000000 0.000000 0.000000 0.000000 0.000000 10.000000 
Head 0.000000 0.000000 0.000000 0.000000 0.000000 0.000000 10.000000 
Motor_Bone 0.000000 0.000000 0.000000 0.000000 0.000000 0.000000 10.000000 
Ping_Mechanism 0.000000 0.000000 0.000000 0.000000 0.000000 0.000000 10.000000 
BN_LookIK 0.000000 0.000000 0.000000 0.000000 0.000000 0.000000 10.000000 
bottomMouth 0.000000 0.000000 0.000000 0.000000 0.000000 0.000000 10.000000 
L_Mouth01 0.000000 0.000000 0.000000 0.000000 0.000000 0.000000 10.000000 
L_mouthFront 0.000000 0.000000 0.000000 0.000000 0.000000 0.000000 10.000000 
mouthGun 0.000000 0.000000 0.000000 0.000000 0.000000 0.000000 10.000000 
R_Mouth01 0.000000 0.000000 0.000000 0.000000 0.000000 0.000000 10.000000 
R_mouthFront 0.000000 0.000000 0.000000 0.000000 0.000000 0.000000 10.000000 
TopMouth 0.000000 0.000000 0.000000 0.000000 0.000000 0.000000 10.000000 
weapon_bone 0.000000 0.000000 0.000000 0.000000 0.000000 0.000000 10.000000 
#Beginning of Data. Separated by tabs
#Fr	Tx	Ty	Tz	Rx	Ry	Rz	SF
[Pinger_Root]
1 0.000000 0.000000 0.000000 -0.000075 -0.000000 -0.000020 0.000000
2 0.000000 -129.629623 0.000000 -0.000075 -0.000000 -0.000020 129.629623
3 0.000000 -259.259247 0.000000 -0.000075 -0.000000 -0.000020 259.259247
[Pelvis]
1 186.347412 374.300018 4984.926758 34.015106 -84.526680 -25.711327 5002.431641
2 93.858398 386.936676 5038.307129 19.413265 -85.261154 -11.059258 5054.015137
3 9.623788 394.396240 5082.880371 -26.855331 -85.195435 35.304317 5098.167969
[L_Hip]
1 5.766392 125.831482 872.656799 -178.250168 -81.786369 87.376007 881.701050
2 5.766392 125.831482 872.656799 -178.250168 -81.786369 87.376007 881.701050
3 5.766392 125.831482 872.656799 -178.250168 -81.786369 87.376007 881.701050
[R_Hip]
1 5.765438 125.836372 -872.654907 -1.748770 81.786041 87.376961 881.699829
2 5.765438 125.836372 -872.654907 -1.748770 81.786041 87.376961 881.699829
3 5.765438 125.836372 -872.654907 -1.748770 81.786041 87.376961 881.699829
[Rear_Leg01]
1 -192.298416 -925.602966 -0.001907 -169.732178 -6.865814 -125.073853 945.367432
2 -192.298416 -925.602966 -0.001907 -170.811752 -6.186607 -120.253006 945.367432
3 -192.298416 -925.602966 -0.001907 -175.346649 -4.324100 -120.024483 945.367432
[Spine1]
1 290.604584 5.007505 0.000477 -8.318092 -1.430809 22.130699 290.647736
2 290.604584 5.007505 0.000477 -8.202238 -1.360863 20.699520 290.647736
3 290.604584 5.007505 0.000477 -7.877281 -1.167400 17.114744 290.647736
[L_Leg01]
1 761.932007 -0.002384 -0.069261 82.598602 -3.538072 -79.619171 761.932068
2 761.932007 -0.002384 -0.069261 82.119301 -7.351403 -80.411751 761.932068
3 761.932007 -0.002384 -0.069261 81.248100 -15.041923 -80.262405 761.932068
[L_Leg02]
1 1441.140503 -0.000954 -0.000715 -1.518039 0.566437 -88.607491 1441.140503
2 1441.140503 -0.000954 -0.000715 -1.508799 0.581198 -89.600075 1441.140503
3 1441.140503 -0.000954 -0.000715 -1.487256 0.602105 -92.754883 1441.140503
[L_Leg03]
1 1686.963989 -0.000715 -0.000954 0.043696 -0.010161 98.232750 1686.963989
2 1686.963989 -0.000715 -0.000954 0.047170 -0.011295 97.555939 1686.963989
3 1686.963989 -0.000715 -0.000954 0.050659 -0.012388 96.879089 1686.963989
[L_Foot]
1 3041.570068 -30.715107 11.297464 -16.996111 16.181570 66.554626 3041.746094
2 3041.570068 -30.715107 11.297464 -15.506185 16.216417 66.314827 3041.746094
3 3041.570068 -30.715107 11.297464 -14.255125 16.330782 66.648071 3041.746094
[L_Toe1_01]
1 -188.216690 -224.732346 -21.137953 89.699348 -3.374833 -165.449051 293.899567
2 -188.216690 -224.732346 -21.137953 89.712082 -3.434679 -165.433182 293.899567
3 -188.216690 -224.732346 -21.137953 89.724831 -3.494528 -165.417328 293.899567
[L_Toe2_01]
1 200.746536 -219.926590 148.838394 -77.585175 -14.470509 -44.182648 332.896027
2 200.746536 -219.926590 148.838394 -77.565857 -14.417823 -44.296860 332.896027
3 200.746536 -219.926590 148.838394 -77.546616 -14.365087 -44.410999 332.896027
[L_Toe3_01]
1 188.832520 -219.859131 -191.078659 -105.094337 14.710049 -44.951870 347.140900
2 188.832520 -219.859131 -191.078659 -105.055313 14.347095 -45.080677 347.140900
3 188.832520 -219.859131 -191.078659 -105.134552 14.542623 -45.196140 347.140900
[planeAlignerLeft]
1 -12.287368 -606.276489 27.301636 0.000000 -90.000000 -90.001900 607.015320
2 -5.564422 -607.899109 30.374907 0.000000 -90.000000 -90.001900 608.682983
3 -7.813643 -609.163391 28.462524 0.000000 -90.000000 -90.001900 609.878052
[L_Toe1_02]
1 413.761139 0.000477 0.000000 0.001412 -22.421448 0.001412 413.761139
2 413.761139 0.000477 0.000000 0.001412 -22.418085 0.001412 413.761139
3 413.761139 0.000477 0.000000 0.001412 -22.414724 0.001412 413.761139
[L_Toe1_03]
1 464.317322 0.000358 -0.000089 0.015052 81.056046 0.015052 464.317322
2 464.317322 0.000358 -0.000089 0.016627 81.904610 0.016627 464.317322
3 464.317322 0.000358 -0.000089 0.015836 81.499893 0.015836 464.317322
[L_Toe2_02]
1 342.235809 -0.000477 0.000238 0.001180 -77.741257 0.001180 342.235809
2 342.235809 -0.000477 0.000238 0.001181 -77.601677 0.001181 342.235809
3 342.235809 -0.000477 0.000238 0.001181 -77.462029 0.001181 342.235809
[L_Toe2_03]
1 420.210846 -0.000715 0.000000 -179.996613 77.155922 -179.993103 420.210846
2 420.210846 -0.000715 0.000000 -179.996063 78.414101 -179.992554 420.210846
3 420.210846 -0.000715 0.000000 -179.996109 78.324768 -179.992584 420.210846
[L_Toe3_02]
1 329.270111 0.000954 0.000000 0.001177 -81.880569 0.001177 329.270111
2 329.270111 0.000954 0.000000 0.001177 -81.864220 0.001177 329.270111
3 329.270111 0.000954 0.000000 0.001177 -81.847847 0.001177 329.270111
[L_Toe3_03]
1 439.137451 -0.001907 0.000954 -179.997986 72.516495 -179.994446 439.137451
2 439.137451 -0.001907 0.000954 -179.997787 73.371346 -179.994263 439.137451
3 439.137451 -0.001907 0.000954 -179.997818 73.278946 -179.994278 439.137451
[planeLockWeightLeft]
1 999.999207 0.098038 0.076265 -0.011826 -0.004376 0.005620 999.999207
2 999.999207 0.098044 0.076257 -0.011826 -0.004376 0.005620 999.999207
3 999.999207 0.098049 0.076248 -0.011826 -0.004376 0.005620 999.999207
[R_Leg01]
1 761.455627 -0.001907 -0.000358 113.983597 -38.007660 59.472404 761.455688
2 761.455627 -0.001907 -0.000358 113.677147 -35.965984 59.614227 761.455688
3 761.455627 -0.001907 -0.000358 115.154030 -37.371536 57.994919 761.455688
[R_Leg02]
1 1441.140625 0.000000 -0.000238 0.162306 -0.062690 -112.594536 1441.140625
2 1441.140625 0.000000 -0.000238 0.184025 -0.054721 -105.661400 1441.140625
3 1441.140625 0.000000 -0.000238 0.188913 -0.030849 -100.378532 1441.140625
[R_Leg03]
1 1686.963989 0.000954 0.001431 -0.038836 0.010501 100.226105 1686.963989
2 1686.963989 0.000954 0.001431 -0.038886 0.010315 99.677139 1686.963989
3 1686.963989 0.000954 0.001431 -0.042382 0.011390 98.644943 1686.963989
[R_Foot]
1 3041.560059 -30.531288 -11.204481 10.344451 -21.176624 49.827793 3041.734131
2 3041.560059 -30.531288 -11.204481 11.447917 -21.053049 46.355778 3041.734131
3 3041.560059 -30.531288 -11.204481 12.484803 -21.235359 43.423637 3041.734131
[planeAlignerRight]
1 -1.181946 -688.444397 0.353241 0.000000 -89.960434 -90.005180 688.445496
2 -1.734619 -695.041382 1.161652 0.000000 -89.960434 -90.005180 695.044495
3 -3.438721 -712.413635 3.288116 0.000000 -89.960434 -90.005180 712.429443
[R_Toe1_01]
1 -188.383347 -224.864899 21.052242 90.711693 1.939960 -159.553543 294.101532
2 -188.383347 -224.864899 21.052242 90.761574 1.893412 -158.998428 294.101532
3 -188.383347 -224.864899 21.052242 90.799507 1.759482 -157.517502 294.101532
[R_Toe2_01]
1 200.637817 -220.002121 -148.787384 -103.215050 11.333437 -50.099243 332.857574
2 200.637817 -220.002121 -148.787384 -103.311302 11.185075 -50.572018 332.857574
3 200.637817 -220.002121 -148.787384 -103.510933 10.812143 -51.821255 332.857574
[R_Toe3_01]
1 188.606735 -220.092957 191.126343 -72.747353 -14.065325 -51.999714 347.192566
2 188.606735 -220.092957 191.126343 -72.617493 -13.972241 -52.509033 347.192566
3 188.606735 -220.092957 191.126343 -72.263565 -13.719302 -53.831902 347.192566
[planeLockWeightRight]
1 999.999023 0.000000 0.076132 -0.011823 -0.004379 -0.000027 999.999023
2 999.999023 -0.000038 0.076141 -0.011823 -0.004379 -0.000027 999.999023
3 999.999084 -0.000076 0.076151 -0.011823 -0.004379 -0.000027 999.999084
[R_Toe1_02]
1 413.762085 0.000477 -0.000119 0.001404 -23.390312 0.001404 413.762085
2 413.762085 0.000477 -0.000119 0.001402 -23.640432 0.001402 413.762085
3 413.762085 0.000477 -0.000119 0.001400 -23.890543 0.001400 413.762085
[R_Toe1_03]
1 464.317810 0.000000 0.001088 0.010088 76.638115 0.010088 464.317810
2 464.317810 0.000000 0.001088 0.009619 75.984047 0.009619 464.317810
3 464.317810 0.000000 0.001088 0.008516 74.156609 0.008516 464.317810
[R_Toe2_02]
1 342.234741 -0.000954 0.000238 -0.002342 -75.466133 -0.002342 342.234741
2 342.234741 -0.000954 0.000238 -0.002343 -75.132355 -0.002343 342.234741
3 342.234741 -0.000954 0.000238 -0.002344 -74.798500 -0.002344 342.234741
[R_Toe2_03]
1 420.210846 0.000715 -0.000268 -179.983932 85.402405 -179.987427 420.210846
2 420.210846 0.000715 -0.000268 -179.981873 85.975769 -179.985382 420.210846
3 420.210846 0.000715 -0.000268 -179.971756 87.513283 -179.975266 420.210846
[R_Toe3_02]
1 329.270355 -0.000477 -0.000954 0.001179 -79.331924 0.001179 329.270355
2 329.270355 -0.000477 -0.000954 0.001179 -78.998703 0.001179 329.270355
3 329.270355 -0.000477 -0.000954 0.001179 -78.665375 0.001179 329.270355
[R_Toe3_03]
1 439.137939 0.000238 0.001431 -179.992584 82.804810 -179.989090 439.137939
2 439.137939 0.000238 0.001431 -179.991730 83.426033 -179.988235 439.137939
3 439.137939 0.000238 0.001431 -179.988419 85.059692 -179.984909 439.137939
[Rear_Leg02]
1 1162.777710 -0.029802 0.005960 31.314798 1.301681 -132.797455 1162.777710
2 1162.777710 -0.029802 0.005960 28.132458 -5.649015 -120.726669 1162.777710
3 1162.777710 -0.029802 0.005960 20.321014 -8.886123 -108.851097 1162.777710
[Rear_Leg03]
1 607.192505 -0.013351 -0.073195 0.009842 -0.006268 81.336182 607.192505
2 607.192505 -0.013351 -0.073195 0.009867 -0.006228 80.874039 607.192505
3 607.192505 -0.013351 -0.073195 0.009943 -0.006107 79.471283 607.192505
[Rear_Leg04]
1 995.874512 -0.020504 -0.011921 -0.039358 -0.007845 119.122383 995.874573
2 995.874512 -0.020504 -0.011921 -0.042485 -0.014315 108.577553 995.874573
3 995.874512 -0.020504 -0.011921 -0.042958 -0.015773 99.555099 995.874573
[Rear_Foot]
1 3096.176270 -0.067472 -0.041425 -100.577736 61.550251 89.912544 3096.176270
2 3096.176270 -0.067472 -0.041425 -103.453430 64.322601 85.913742 3096.176270
3 3096.176270 -0.067472 -0.041425 -108.013199 68.631149 72.522980 3096.176270
[planeAlignerCenter]
1 14.260196 182.001419 -762.765930 0.000009 0.000003 -179.999985 784.308472
2 12.239609 195.527496 -760.563171 0.000009 0.000003 -179.999985 785.389832
3 7.391891 229.401398 -756.975525 0.000009 0.000003 -179.999985 791.006653
[Rear_Toe1_01]
1 0.653352 83.966492 -371.173737 0.096637 39.650021 90.044579 380.553192
2 0.653352 83.966492 -371.173737 0.095486 39.645374 90.043968 380.553192
3 0.653352 83.966492 -371.173737 0.094336 39.640728 90.043373 380.553192
[Rear_Toe2_01]
1 178.200760 -294.826019 -362.060547 62.252106 84.608093 -8.421132 499.765686
2 178.200760 -294.826019 -362.060547 67.904900 84.622177 -2.750726 499.765686
3 178.200760 -294.826019 -362.060547 82.002098 84.424408 11.382691 499.765686
[Rear_Toe3_01]
1 -153.359680 -308.780914 -362.060852 -63.990082 83.950325 -175.509552 499.952881
2 -153.359680 -308.780914 -362.060852 -69.060944 83.929298 179.399094 499.952881
3 -153.359680 -308.780914 -362.060852 -81.482368 83.669899 166.936462 499.952881
[planeLockWeightCenter]
1 0.000238 0.000000 0.076447 -0.011814 -0.004373 -0.000015 0.076447
2 0.000242 0.000000 0.076396 -0.011814 -0.004373 -0.000015 0.076396
3 0.000245 0.000000 0.076345 -0.011814 -0.004373 -0.000015 0.076345
[Rear_Toe1_02]
1 379.707825 0.194073 0.000477 -0.000767 -33.624729 0.000838 379.707855
2 379.707825 0.194073 0.000477 -0.000767 -33.624729 0.000838 379.707855
3 379.707825 0.194073 0.000477 -0.000767 -33.624729 0.000838 379.707855
[Rear_Toe1_03]
1 500.129700 0.165701 0.000119 -179.984192 85.314957 -179.987686 500.129761
2 500.129700 0.165701 0.000119 -179.980728 86.239693 -179.984222 500.129761
3 500.129700 0.165701 0.000119 -179.950485 88.620720 -179.953979 500.129761
[Rear_Toe2_02]
1 340.494507 0.000238 -0.000954 179.998825 -87.344498 179.998825 340.494507
2 340.494507 0.000238 -0.000954 179.998825 -87.279984 179.998825 340.494507
3 340.494507 0.000238 -0.000954 179.998825 -87.214981 179.998825 340.494507
[Rear_Toe2_03]
1 433.103577 0.000000 0.000238 -179.996231 55.388519 -179.999893 433.103546
2 433.103577 0.000000 0.000238 -179.996262 54.981525 -179.999924 433.103546
3 433.103577 0.000000 0.000238 -179.996277 54.574524 -179.999954 433.103546
[Rear_Toe3_02]
1 340.494141 -0.000358 -0.000477 -179.994171 -87.392410 -179.994171 340.494171
2 340.494141 -0.000358 -0.000477 -179.994171 -87.328705 -179.994171 340.494171
3 340.494141 -0.000358 -0.000477 -179.994171 -87.265198 -179.994171 340.494171
[Rear_Toe3_03]
1 433.103577 0.001431 -0.000238 179.992371 55.640007 179.999695 433.103546
2 433.103577 0.001431 -0.000238 179.992416 55.246502 179.999741 433.103546
3 433.103577 0.001431 -0.000238 179.992447 54.852955 179.999786 433.103546
[Back_Bone]
1 1312.175781 -701.934692 0.000954 -2.876992 1.429053 -84.242424 1488.125488
2 1312.175781 -701.934692 0.000954 -3.016175 1.111372 -84.530403 1488.125488
3 1312.175781 -701.934692 0.000954 -3.153744 0.792996 -84.817581 1488.125488
[Head]
1 1406.159424 809.709290 0.001431 -2.543711 1.586832 22.891869 1622.625488
2 1406.159424 809.709290 0.001431 -2.738785 1.578729 22.713646 1622.625488
3 1406.159424 809.709290 0.001431 -2.933832 1.570020 22.535454 1622.625488
[Motor_Bone]
1 1158.364380 -417.834747 0.000477 -2.687934 0.131929 -105.851517 1231.419434
2 1158.364380 -417.834747 0.000477 -5.513655 1.191246 -104.796577 1231.419434
3 1158.364380 -417.834747 0.000477 -3.495545 0.584006 -105.401466 1231.419434
[Ping_Mechanism]
1 1203.679443 -428.413696 24.030188 0.000103 -0.000053 82.120995 1277.873291
2 1210.383545 -431.725433 22.765215 0.000103 -0.000053 82.120995 1285.275513
3 1227.709839 -439.104614 19.344330 0.000103 -0.000053 82.120995 1304.016357
[BN_LookIK]
1 193.241119 1380.371704 -0.002861 0.000000 89.965736 -31.038179 1393.832153
2 193.241119 1380.371704 -0.002861 0.000000 89.965736 -31.038179 1393.832153
3 193.241119 1380.371704 -0.002861 0.000000 89.965736 -31.038179 1393.832153
[bottomMouth]
1 -435.092926 615.759399 -0.000954 -0.000022 0.000016 73.527184 753.966492
2 -435.092926 615.759399 -0.000954 -0.000022 0.000016 73.527184 753.966492
3 -435.092926 615.759399 -0.000954 -0.000022 0.000016 73.527184 753.966492
[L_Mouth01]
1 554.440979 7.658243 838.222046 150.204178 23.759130 109.605339 1005.027161
2 554.440979 7.658243 838.222046 150.204178 23.759130 109.605339 1005.027161
3 554.440979 7.658243 838.222046 150.204178 23.759130 109.605339 1005.027161
[L_mouthFront]
1 551.629089 934.514771 339.150421 0.000081 2.804060 79.119301 1136.941284
2 551.629089 934.514771 339.150421 0.000081 2.804060 79.119301 1136.941284
3 551.629089 934.514771 339.150421 0.000081 2.804060 79.119301 1136.941284
[mouthGun]
1 55.332661 1627.420898 0.000000 0.000023 0.000009 -11.038128 1628.361328
2 55.332661 1627.420898 0.000000 0.000023 0.000009 -11.038128 1628.361328
3 55.332661 1627.420898 0.000000 0.000023 0.000009 -11.038128 1628.361328
[R_Mouth01]
1 554.442383 7.659197 -838.223938 29.795891 -23.759109 109.605331 1005.029541
2 554.442383 7.659197 -838.223938 29.795891 -23.759109 109.605331 1005.029541
3 554.442383 7.659197 -838.223938 29.795891 -23.759109 109.605331 1005.029541
[R_mouthFront]
1 551.629089 934.514282 -339.151367 0.000029 -2.803930 79.119133 1136.941162
2 551.629089 934.514282 -339.151367 0.000029 -2.803930 79.119133 1136.941162
3 551.629089 934.514282 -339.151367 0.000029 -2.803930 79.119133 1136.941162
[TopMouth]
1 461.269867 -56.106091 -0.008583 -0.000059 -0.000268 92.025169 464.669525
2 461.269867 -56.106091 -0.008583 -0.000059 -0.000268 92.025169 464.669525
3 461.269867 -56.106091 -0.008583 -0.000059 -0.000268 92.025169 464.669525
[weapon_bone]
1 -987.239868 1448.372803 0.001431 0.000000 89.965736 -31.038221 1752.833740
2 -987.239868 1448.372803 0.001431 0.000000 89.965736 -31.038221 1752.833740
3 -987.239868 1448.372803 0.001431 0.000000 89.965736 -31.038221 1752.833740
